HIERARCHY
ROOT Hips
{
	OFFSET 0.000000 0.000000 0.000000
	CHANNELS 6 Xposition Yposition Zposition Zrotation Yrotation Xrotation 
	JOINT LHipJoint
	{
		OFFSET 0.000000 0.000000 0.000000
		CHANNELS 3 Zrotation Yrotation Xrotation
		JOINT LeftUpLeg
		{
			OFFSET 1.363060 -1.794630 0.839290
			CHANNELS 3 Zrotation Yrotation Xrotation
			JOINT LeftLeg
			{
				OFFSET 2.448110 -6.726130 0.000000
				CHANNELS 3 Zrotation Yrotation Xrotation
				JOINT LeftFoot
				{
					OFFSET 2.562200 -7.039590 0.000000
					CHANNELS 3 Zrotation Yrotation Xrotation
					JOINT LeftToeBase
					{
						OFFSET 0.157640 -0.433110 2.322550
						CHANNELS 3 Zrotation Yrotation Xrotation
						End Site
						{
							OFFSET 0.000000 0.000000 0.000000
						}
					}
				}
			}
		}
	}
	JOINT RHipJoint
	{
		OFFSET 0.000000 0.000000 0.000000
		CHANNELS 3 Zrotation Yrotation Xrotation
		JOINT RightUpLeg
		{
			OFFSET -1.305520 -1.794630 0.839290
			CHANNELS 3 Zrotation Yrotation Xrotation
			JOINT RightLeg
			{
				OFFSET -2.542530 -6.985550 0.000000
				CHANNELS 3 Zrotation Yrotation Xrotation
				JOINT RightFoot
				{
					OFFSET -2.568260 -7.056230 0.000000
					CHANNELS 3 Zrotation Yrotation Xrotation
					JOINT RightToeBase
					{
						OFFSET -0.164730 -0.452590 2.363150
						CHANNELS 3 Zrotation Yrotation Xrotation
						End Site
						{
							OFFSET 0.000000 0.000000 0.000000
						}
					}
				}
			}
		}
	}
}
MOTION
Frames: 30
Frame Time: 0.008333
-0.161484 16.857537 0.113297 25.028190 80.976794 27.518426 -10.316483 0.942189 2.699323 -8.796692 1.069132 -27.791815 -1.863887 0.654190 23.740881 0.730259 4.275985 -2.026577 0.491600 -0.000000 -27.797200 10.599295 -3.664426 -2.490697 2.492016 -17.105042 -1.891305 -0.091352 -3.355258 43.977855 -0.815667 -2.754840 5.611123 -0.565600 0.000000 -71.723800
0.041636 16.843039 0.147324 25.142098 80.352528 27.375125 -10.323922 1.057030 2.449531 -9.184228 2.249420 -27.398050 -1.854317 0.726962 24.817922 0.748283 4.437778 -2.120541 0.485100 0.000000 -28.065800 10.848036 -3.567967 -2.578756 1.677349 -17.852317 -3.547956 -0.382472 -3.520329 47.359063 -1.077691 -4.313209 6.818552 -0.930000 0.000000 -69.158900
0.242544 16.828269 0.183177 25.094345 79.708918 27.121941 -10.325371 1.170055 2.201904 -9.542711 3.507958 -27.039339 -1.868022 0.784425 25.802161 0.760797 4.513224 -2.498549 0.444900 -0.000001 -28.395900 11.063817 -3.447219 -2.638202 1.035943 -18.455005 -5.296577 -0.626190 -3.664472 50.555231 -1.345283 -6.004018 7.472584 -1.351401 0.000000 -65.360600
0.441334 16.813703 0.220439 24.854785 79.033404 26.727385 -10.323719 1.281129 1.963495 -9.853581 4.789801 -26.694749 -1.902901 0.828931 26.691157 0.768627 4.507776 -3.141632 0.373500 -0.000000 -28.802900 11.243518 -3.309746 -2.671483 0.574460 -18.911483 -7.124546 -0.823607 -3.794995 53.517157 -1.595355 -7.677582 7.523258 -1.753900 -0.000000 -60.834200
0.638192 16.799896 0.258709 24.419724 78.316842 26.183940 -10.321413 1.390054 1.739682 -10.105026 6.045203 -26.339580 -1.954931 0.862396 27.480029 0.774217 4.441441 -4.004687 0.278400 -0.000000 -29.300800 11.386934 -3.162006 -2.680875 0.291685 -19.223585 -9.018256 -0.978800 -3.916084 56.203610 -1.809982 -9.191883 6.976217 -2.057300 -0.000000 -56.031100
0.833292 16.787372 0.297664 23.798908 77.554508 25.494930 -10.321032 1.496740 1.534367 -10.288466 7.232946 -25.949325 -2.018358 0.886542 28.162443 0.781046 4.345476 -5.022823 0.169101 -0.000000 -29.899800 11.494921 -3.008538 -2.668422 0.183695 -19.395465 -10.960630 -1.095639 -4.028178 58.579156 -1.977107 -10.430945 5.890260 -2.201700 -0.000000 -51.314500
1.026834 16.776575 0.337211 23.031923 76.747166 24.691363 -10.323310 1.601045 1.349196 -10.403995 8.321277 -25.498974 -2.086647 0.902365 28.729991 0.793107 4.259640 -6.122081 0.054800 -0.000001 -30.599000 11.570897 -2.852438 -2.637029 0.235592 -19.439098 -12.931326 -1.175125 -4.130207 60.617998 -2.088972 -11.308594 4.348060 -2.158000 -0.000000 -46.819600
1.219073 16.767915 0.377211 22.152717 75.903452 23.797938 -10.329627 1.702830 1.184635 -10.450575 9.291411 -24.971456 -2.152905 0.911113 29.179366 0.813805 4.222258 -7.230391 -0.058500 0.000000 -31.384200 11.617093 -2.695854 -2.590204 0.433904 -19.373408 -14.906153 -1.215735 -4.219445 62.298488 -2.142181 -11.777018 2.454316 -1.935000 -0.000000 -42.576600
1.409918 16.761663 0.418133 21.252409 75.028180 22.888730 -10.336518 1.802692 1.036838 -10.448114 10.134118 -24.335426 -2.211603 0.912242 29.491255 0.846619 4.277652 -8.276753 -0.167700 0.000000 -32.231300 11.641129 -2.538687 -2.532544 0.737123 -19.221141 -16.853993 -1.214809 -4.295056 63.606755 -2.137639 -11.825486 0.328839 -1.574300 -0.000000 -38.574500
1.599735 16.757925 0.459834 20.341338 74.142601 21.966337 -10.346405 1.900476 0.904141 -10.392583 10.856695 -23.591937 -2.257783 0.907606 29.674304 0.892083 4.443172 -9.214491 -0.273000 0.000000 -33.106800 11.642474 -2.382076 -2.468980 1.137090 -19.015130 -18.748204 -1.170126 -4.353598 64.530280 -2.081474 -11.488338 -1.897152 -1.140700 -0.000000 -34.831300
1.788569 16.756758 0.502631 19.466206 73.262022 21.064207 -10.358174 1.996866 0.782232 -10.295443 11.474349 -22.731077 -2.288990 0.897534 29.723094 0.950091 4.731410 -10.007264 -0.374900 0.000000 -33.979700 11.624440 -2.225575 -2.404600 1.607048 -18.788584 -20.561752 -1.082403 -4.393699 65.066504 -1.984999 -10.837399 -4.088385 -0.704100 0.000000 -31.440000
1.976496 16.757993 0.546832 18.655833 72.403771 20.201969 -10.371273 2.092395 0.666823 -10.164375 12.010174 -21.752416 -2.304821 0.882583 29.637619 1.018852 5.137132 -10.637720 -0.473400 -0.000001 -34.823600 11.589011 -2.068635 -2.344583 2.129140 -18.576033 -22.275045 -0.956082 -4.414368 65.221997 -1.864108 -9.978289 -6.121815 -0.321200 0.000000 -28.550700
2.163668 16.761434 0.592659 17.922366 71.584307 19.385251 -10.385943 2.187817 0.554876 -10.003390 12.491585 -20.662105 -2.306805 0.863265 29.420567 1.095052 5.638224 -11.105507 -0.566600 0.000000 -35.620400 11.536835 -1.911164 -2.293504 2.693688 -18.411225 -23.876430 -0.798935 -4.415014 65.013681 -1.737585 -9.038972 -7.906145 -0.023000 -0.000000 -26.310600
2.350213 16.766721 0.640355 17.271038 70.817448 18.616455 -10.402514 2.284025 0.444319 -9.814452 12.946730 -19.470140 -2.298075 0.839837 29.075495 1.174386 6.200548 -11.423924 -0.651700 0.000000 -36.360000 11.468047 -1.753713 -2.255195 3.297807 -18.323149 -25.361785 -0.620115 -4.395771 64.467693 -1.624645 -8.152524 -9.399452 0.188500 -0.000000 -24.777300
2.536274 16.773416 0.690181 16.699671 70.112612 17.893938 -10.421388 2.381939 0.334133 -9.597885 13.401111 -18.189301 -2.282748 0.812350 28.607084 1.251884 6.781938 -11.616004 -0.725700 -0.000000 -37.040700 11.382393 -1.597291 -2.232435 3.942924 -18.333449 -26.733748 -0.427920 -4.357366 63.616887 -1.542805 -7.439943 -10.613736 0.333000 0.000000 -23.861800
2.722035 16.781052 0.742306 16.200723 69.475941 17.213738 -10.443266 2.482516 0.224947 -9.351911 13.875303 -16.834792 -2.265141 0.780604 28.021292 1.322473 7.338007 -11.709771 -0.786000 0.000000 -37.669000 11.279005 -1.443769 -2.226027 4.634676 -18.454639 -27.999137 -0.228205 -4.300580 62.495717 -1.506355 -6.995227 -11.604578 0.440200 0.000000 -23.342700
2.907671 16.789132 0.796906 15.764524 68.908531 16.572503 -10.468622 2.586604 0.117887 -9.074631 14.383492 -15.421230 -2.249195 0.744286 27.324588 1.381458 7.827554 -11.732526 -0.831500 0.000000 -38.259800 11.157091 -1.295081 -2.235092 5.379355 -18.688776 -29.167164 -0.023863 -4.226057 61.135501 -1.525407 -6.874499 -12.453071 0.539900 -0.000000 -22.908799
3.093382 16.797206 0.854110 15.379160 68.407198 15.966717 -10.497716 2.694659 0.014238 -8.764359 14.932660 -13.963239 -2.237939 0.703139 26.524265 1.425171 8.218062 -11.706975 -0.862200 -0.000001 -38.836800 11.016114 -1.152815 -2.257031 6.182266 -19.027135 -30.247814 0.184383 -4.133898 59.561708 -1.605437 -7.091838 -13.242211 0.656100 0.000000 -22.244500
3.279395 16.804796 0.913999 15.030569 67.965267 15.392236 -10.530920 2.806993 -0.084097 -8.419469 15.523146 -12.475651 -2.233008 0.657109 25.630372 1.451291 8.488671 -11.647917 -0.878300 -0.000000 -39.430801 10.855616 -1.018823 -2.286966 7.048073 -19.451444 -31.249849 0.397229 -4.023270 57.791171 -1.747015 -7.620184 -14.041572 0.806400 0.000000 -21.069200
3.465795 16.811553 0.976583 14.704623 67.573736 14.844620 -10.568542 2.923623 -0.174875 -8.039402 16.148337 -10.973024 -2.234453 0.606491 24.655640 1.459162 8.632726 -11.560444 -0.880300 0.000000 -40.076600 10.675659 -0.894946 -2.318169 7.979039 -19.935632 -32.180526 0.615163 -3.892482 55.831815 -1.945559 -8.399351 -14.887291 1.000800 0.000000 -19.246500
3.652726 16.817147 1.041916 14.387847 67.221630 14.320727 -10.610677 3.044308 -0.256243 -7.625418 16.796731 -9.470115 -2.241001 0.552087 23.615453 1.449967 8.658603 -11.441090 -0.868300 0.000000 -40.807500 10.477221 -0.783001 -2.342914 8.974937 -20.447413 -33.044725 0.837460 -3.739247 53.683696 -2.190857 -9.345576 -15.772804 1.238600 0.000000 -16.850400
3.840225 16.821346 1.110008 14.064894 66.896019 13.815413 -10.657423 3.168445 -0.327564 -7.178566 17.454031 -7.981300 -2.250405 0.495466 22.528917 1.426348 8.586504 -11.280970 -0.842100 -0.000000 -41.649200 10.262116 -0.684621 -2.354176 10.033363 -20.951079 -33.842452 1.062833 -3.561086 51.343368 -2.467956 -10.363285 -16.667697 1.510000 -0.000000 -14.010100
4.028217 16.823963 1.180922 13.726162 66.585338 13.326824 -10.708627 3.295546 -0.387518 -6.702816 18.102882 -6.521411 -2.259585 0.438562 21.418510 1.392197 8.446904 -11.067327 -0.802299 0.000000 -42.614600 10.033550 -0.602324 -2.343575 11.148208 -21.408683 -34.571365 1.286798 -3.355612 48.802244 -2.757844 -11.365322 -17.481554 1.785900 -0.000000 -11.269100
4.216544 16.824889 1.254746 13.362307 66.278227 12.851980 -10.764036 3.424790 -0.436684 -6.201329 18.728079 -5.104702 -2.265471 0.383935 20.309661 1.351944 8.274401 -10.788707 -0.749500 0.000000 -43.700300 9.795547 -0.538118 -2.304938 12.310965 -21.783370 -35.223907 1.505962 -3.120988 46.055727 -3.040849 -12.276163 -18.136454 2.031600 0.000001 -9.025300
4.404948 16.824004 1.331708 12.971415 65.965880 12.392726 -10.822738 3.555266 -0.476297 -5.679074 19.315370 -3.743292 -2.265288 0.334234 19.229037 1.309868 8.102442 -10.435995 -0.685100 -0.000000 -44.887600 9.553132 -0.493424 -2.232904 13.507079 -22.040395 -35.788297 1.718068 -2.855826 43.104011 -3.300025 -13.042701 -18.574437 2.213900 -0.000000 -7.537500
4.593110 16.821284 1.411931 12.545176 65.642448 11.942980 -10.884936 3.685722 -0.509873 -5.133847 19.860641 -2.449595 -2.257216 0.292472 18.206856 1.268853 7.953385 -10.005644 -0.610300 0.000000 -46.149800 9.310763 -0.468641 -2.123228 14.721541 -22.143654 -36.244859 1.922059 -2.557950 39.948898 -3.524562 -13.642039 -18.769042 2.310700 0.000000 -6.870200
4.780611 16.816651 1.495716 12.098299 65.306438 11.515165 -10.948187 3.814614 -0.541006 -4.573271 20.356362 -1.229262 -2.240115 0.260761 17.267092 1.231425 7.845700 -9.496271 -0.526000 0.000000 -47.454300 9.075509 -0.461457 -1.971830 15.921417 -22.063754 -36.573946 2.116863 -2.226057 36.601539 -3.708988 -14.076389 -18.716046 2.311900 -0.000000 -7.003399
4.967041 16.810071 1.583313 11.644597 64.961225 11.119582 -11.010462 3.939990 -0.575255 -4.000564 20.802711 -0.084751 -2.214034 0.240975 16.431505 1.198189 7.782139 -8.910169 -0.432500 -0.000000 -48.775100 8.854623 -0.467084 -1.775706 17.067053 -21.773693 -36.751720 2.300587 -1.858518 33.078098 -3.854222 -14.374463 -18.433237 2.221600 0.000001 -7.830200
5.151968 16.801486 1.674996 11.215686 64.615643 10.779262 -11.067761 4.059848 -0.618007 -3.426170 21.196506 0.991261 -2.179610 0.234036 15.711613 1.168929 7.758256 -8.249082 -0.329400 -0.000001 -50.095300 8.657422 -0.477410 -1.533574 18.102912 -21.260066 -36.759202 2.469464 -1.455660 29.411001 -3.964555 -14.577578 -17.953524 2.053500 0.000000 -9.218199
5.335252 16.790959 1.770789 10.825256 64.281302 10.499072 -11.118766 4.172369 -0.674895 -2.848123 21.546145 2.004885 -2.138374 0.240729 15.118350 1.141064 7.750440 -7.517098 -0.216700 0.000000 -51.417700 8.490819 -0.483947 -1.245319 18.979551 -20.514810 -36.579181 2.617427 -1.018917 25.641299 -4.048391 -14.740092 -17.320331 1.827499 -0.000000 -11.004300
